<svg height="1024" width="1024" xmlns="http://www.w3.org/2000/svg"><linearGradient gradientTransform="scale(1 -1) rotate(-20 -2033.4 -1165.3)" gradientUnits="userSpaceOnUse" id="a" x1="464.1" x2="-194.3" y1="-73" y2="711.6"><stop offset="0"/><stop offset=".2" stop-color="#090909"/><stop offset=".5" stop-color="#212121"/><stop offset=".9" stop-color="#494948"/><stop offset="1" stop-color="#545453"/></linearGradient><circle cx="512" cy="512" fill="url(#a)" r="512"/><linearGradient gradientTransform="matrix(1 0 0 -1 214.3 1116)" gradientUnits="userSpaceOnUse" id="b" x1="129" x2="691.7" y1="836.3" y2="273.7"><stop offset="0"/><stop offset=".5" stop-color="#090909" stop-opacity=".5"/><stop offset="1" stop-color="#181818" stop-opacity="0"/></linearGradient><path d="M668.8 999.5l-350-350L281 512l-7.8-162.1 141.4 141.4L549 346l91.6 91.6L804 346l217.5 217.4s-4.9 40.8-10 61.3c-5 20.6-11.3 43.7-17 59s-11.8 30.8-16.9 41.5c-5 10.8-10 21.3-16.5 32.9s-10 18-16.4 27.7c-6.3 9.8-13.3 20.8-23 33.3-9.7 12.6-11.5 15.9-24.4 30-13 14.3-18.8 21.5-33.4 34.8s-21.9 20.4-36.6 31.5c-14.7 11-33.3 24.8-49 34s-28.3 16.5-41.9 23-27 12.6-39.3 17.1c-12.3 4.6-15.7 6.2-28.3 10z" fill="url(#b)"/><path d="M828.9 706c-.2-3.3-1-7.2-2.3-10.3a96.9 96.9 0 00-11-19c-22.3-29.8-37-45-48.2-57-11.1-12-57-55.2-60-63.8-3-8.5-3.9-12.3 4.6-23.9 8.5-11.5 27.2-40.7 41.7-61.7a694.5 694.5 0 0052.1-90.7c3.5-7.7 6.6-14.7 4.5-23.3-1.5-5.8-4.7-10.8-10.8-12.3-3.3-.7-6.9-.8-10.3-.8h-45.5l-18-.1c-6 0-12.2 0-18.3.5-8.6.7-14 7.4-18.3 14.1-5.4 8.3-10.2 16.9-15.4 25.2l-10.4 17.3c-5.3 9-10.8 18-16.2 26.9l-6.8 11.1c-6.4 10.7-62 84-73.2 87s-15 2-15-20.6V353s-.9-9.9-10.3-9.9H398.6s-21.1.1-13.7 19.2c7.5 19 29.7 24.8 29.7 56.6v124.5s-3.8 28-28 4.8a314.5 314.5 0 01-48.6-62 482.8 482.8 0 01-36.4-72.6c-3-7.3-5.9-14.5-9-21.7l-9.3-22.6c-3.5-8.8-7.3-20.3-16.8-24.3-4.8-2-10.1-2-15.2-2h-73.5c-13.2.1-29.5-.3-32.6 16.1-1.8 9.5 1.8 19.5 4.8 28.4 1.3 4 3 7.9 4.5 11.8a603 603 0 0027 58.6c23.3 45.5 47.2 89.7 79.4 129.7 32.5 40.4 70.8 79.5 116 105.7a220 220 0 0039.5 18c53 18 111.3 16.3 129.3 4.3 18-12-3.4-90.7 12.8-100.2 16.3-9.4 45.4 11.2 66.8 30a702.7 702.7 0 0149.7 48c7.5 8 12.7 17.6 22.5 23.3 16.2 9.5 37.8 8.5 55.8 8.5h30.2c6.8-.1 13.6 0 20.4-.2 11.2-.6 25.8-5 25-19z" fill="#FFF"/></svg>