<svg id="Layer_1" version="1.1" viewBox="0 0 1000 1000" xml:space="preserve" xmlns="http://www.w3.org/2000/svg"><style>.st0{fill:#fff}</style><path d="M500 1000A500 500 0 01500 0a500 500 0 010 1000z"/><path class="st0" d="M500 220c91 0 102 0 138 2 33 2 51 7 63 12a120 120 0 0165 65c5 12 10 30 12 63 1 36 2 47 2 138s-1 102-2 138c-2 33-7 51-12 63a110 110 0 01-65 65c-12 5-30 10-63 12-36 1-47 2-138 2s-102-1-138-2c-33-2-51-7-63-12-16-6-28-14-39-25-12-12-20-24-26-40-5-12-10-30-12-63-1-36-2-47-2-138s1-102 2-138c2-33 7-51 12-63 6-16 14-28 26-39 11-12 23-20 39-26 12-5 30-10 63-12 36-1 47-2 138-2m0-61c-93 0-104 0-141 2-36 1-61 7-83 16-22 8-41 20-60 39s-31 38-39 61c-9 21-15 46-16 82s-2 48-2 141 0 104 2 141c1 36 7 61 16 83 8 22 20 41 39 60s38 31 61 39c21 9 46 15 82 16s48 2 141 2 104 0 141-2c36-1 61-7 83-16 22-8 41-20 60-39s31-38 39-60c9-22 15-47 16-83s2-48 2-141 0-104-2-141c-1-36-7-61-16-83-8-22-20-41-39-60s-38-31-60-39c-22-9-47-15-83-16-37-2-48-2-141-2z"/><path class="st0" d="M500 325a175 175 0 100 350 175 175 0 000-350zm0 289a114 114 0 110-228 114 114 0 010 228z"/><circle class="st0" cx="682.2" cy="317.8" r="41"/></svg>